<?xml version="1.0" encoding="UTF-8" standalone="no"?>
<svg
   viewBox="0 0 128 128"
   version="1.1"
   id="svg5"
   sodipodi:docname="lock-screen.svg"
   xml:space="preserve"
   width="128"
   height="128"
   inkscape:version="1.4.3 (0d15f75042, 2025-12-25)"
   xmlns:inkscape="http://www.inkscape.org/namespaces/inkscape"
   xmlns:sodipodi="http://sodipodi.sourceforge.net/DTD/sodipodi-0.dtd"
   xmlns="http://www.w3.org/2000/svg"
   xmlns:svg="http://www.w3.org/2000/svg"><defs
     id="defs5" /><sodipodi:namedview
     id="namedview5"
     pagecolor="#000000"
     bordercolor="#000000"
     borderopacity="0.25"
     inkscape:showpageshadow="2"
     inkscape:pageopacity="0.0"
     inkscape:pagecheckerboard="0"
     inkscape:deskcolor="#ebebeb"
     inkscape:zoom="3.9431024"
     inkscape:cx="35.378234"
     inkscape:cy="64.796694"
     inkscape:window-width="1920"
     inkscape:window-height="1011"
     inkscape:window-x="0"
     inkscape:window-y="0"
     inkscape:window-maximized="1"
     inkscape:current-layer="g6" /><g
     id="g5"
     transform="matrix(0.88591447,0,0,0.88591447,7.3014747,7.4283474)"><g
       id="g6"
       transform="translate(-0.51674931,-0.06068326)"><path
         id="rect1"
         style="fill:#ffffff"
         d="m 64.51675,6.3498365 c -16.181824,0 -29.348205,13.1663695 -29.348205,29.3482055 V 53.758476 H 23.880773 c -2.50137,0 -4.515108,2.013738 -4.515108,4.515109 V 116.97 c 0,2.50137 2.013738,4.51511 4.515108,4.51511 h 81.271957 c 2.50137,0 4.5151,-2.01374 4.5151,-4.51511 V 58.273585 c 0,-2.501371 -2.01373,-4.515109 -4.5151,-4.515109 H 93.864956 V 35.698042 c 0,-16.181836 -13.166381,-29.3482055 -29.348206,-29.3482055 z m 0,4.5151085 c 13.741682,0 24.833097,11.091406 24.833097,24.833097 V 53.758476 H 39.683653 V 35.698042 c 0,-13.741691 11.091415,-24.833097 24.833097,-24.833097 z m 0,72.241737 a 6.7726626,6.7726626 0 0 1 6.772663,6.772662 6.7726626,6.7726626 0 0 1 -5.079497,6.558813 v 11.501623 a 1.6931649,1.6931649 0 0 1 -1.693166,1.69317 1.6931649,1.6931649 0 0 1 -1.693165,-1.69317 V 96.438157 a 6.7726626,6.7726626 0 0 1 -5.079497,-6.558813 6.7726626,6.7726626 0 0 1 6.772662,-6.772662 z" /></g></g></svg>
