<?xml version="1.0" encoding="UTF-8" standalone="no"?>
<svg
   viewBox="0 0 144 144"
   version="1.1"
   id="svg2"
   sodipodi:docname="ok.svg"
   inkscape:version="1.4.3 (0d15f75042, 2025-12-25)"
   xmlns:inkscape="http://www.inkscape.org/namespaces/inkscape"
   xmlns:sodipodi="http://sodipodi.sourceforge.net/DTD/sodipodi-0.dtd"
   xmlns="http://www.w3.org/2000/svg"
   xmlns:svg="http://www.w3.org/2000/svg">
  <defs
     id="defs2" />
  <sodipodi:namedview
     id="namedview2"
     pagecolor="#000000"
     bordercolor="#000000"
     borderopacity="0.25"
     inkscape:showpageshadow="2"
     inkscape:pageopacity="0.0"
     inkscape:pagecheckerboard="0"
     inkscape:deskcolor="#d1d1d1"
     inkscape:zoom="2.7881944"
     inkscape:cx="90.919055"
     inkscape:cy="74.779578"
     inkscape:window-width="1920"
     inkscape:window-height="1011"
     inkscape:window-x="0"
     inkscape:window-y="0"
     inkscape:window-maximized="1"
     inkscape:current-layer="svg2" />
  <path
     id="path4"
     style="fill:#00ff00;stroke:none;stroke-width:5;stroke-linecap:round;stroke-linejoin:round"
     d="M 72,17.125001 A 54.874222,54.874222 0 0 0 17.125,72.000001 54.874222,54.874222 0 0 0 72,126.875 54.874222,54.874222 0 0 0 126.875,72.000001 54.874222,54.874222 0 0 0 72,17.125001 Z m 22.791016,27.275391 a 2.5,2.5 0 0 1 1.552734,0.417969 2.5,2.5 0 0 1 0.6875,3.466797 L 64.394531,97.062501 a 2.50025,2.50025 0 0 1 -3.992187,0.21875 L 47.132812,81.500001 a 2.5,2.5 0 0 1 0.304688,-3.521484 2.5,2.5 0 0 1 3.521484,0.304688 L 62.087891,91.51758 92.875,45.505861 a 2.5,2.5 0 0 1 1.916016,-1.105469 z" />
</svg>
