<?xml version="1.0" encoding="UTF-8" standalone="no"?>
<svg
   viewBox="0 0 128 128"
   version="1.1"
   id="svg5"
   sodipodi:docname="pomodoro.svg"
   xml:space="preserve"
   width="128"
   height="128"
   inkscape:version="1.4.3 (0d15f75042, 2025-12-25)"
   xmlns:inkscape="http://www.inkscape.org/namespaces/inkscape"
   xmlns:sodipodi="http://sodipodi.sourceforge.net/DTD/sodipodi-0.dtd"
   xmlns="http://www.w3.org/2000/svg"
   xmlns:svg="http://www.w3.org/2000/svg"><defs
     id="defs5" /><sodipodi:namedview
     id="namedview5"
     pagecolor="#000000"
     bordercolor="#000000"
     borderopacity="0.25"
     inkscape:showpageshadow="2"
     inkscape:pageopacity="0.0"
     inkscape:pagecheckerboard="0"
     inkscape:deskcolor="#ebebeb"
     inkscape:zoom="3.9431024"
     inkscape:cx="35.885449"
     inkscape:cy="78.491494"
     inkscape:window-width="1920"
     inkscape:window-height="1011"
     inkscape:window-x="0"
     inkscape:window-y="0"
     inkscape:window-maximized="1"
     inkscape:current-layer="svg5" /><path
     id="circle1"
     style="fill:#ff0000;stroke-width:0.885914"
     d="m 63.999999,6.6777331 a 2.5000019,2.5000019 0 0 0 -2.5,2.5 V 22.126952 A 2.5000019,2.5000019 0 0 0 61.95703,23.568358 48.898286,48.898286 0 0 0 15.101561,72.423827 48.898286,48.898286 0 0 0 63.999999,121.32227 48.898286,48.898286 0 0 0 112.89844,72.423827 48.898286,48.898286 0 0 0 66.042968,23.568358 2.5000019,2.5000019 0 0 0 66.499999,22.126952 V 9.1777331 a 2.5000019,2.5000019 0 0 0 -2.5,-2.5 z M 63.722655,38.882811 a 2.7762211,2.7762211 0 0 1 0.138672,0.0039 2.7762211,2.7762211 0 0 1 0.138672,-0.0039 2.7762211,2.7762211 0 0 1 2.775391,2.777344 v 15.033203 h 16.482421 v -8.169922 a 2.168196,2.168196 0 0 1 2.167969,-2.167968 2.168196,2.168196 0 0 1 2.167969,2.167968 v 8.169922 h 15.681641 a 2.1461849,2.1461849 0 0 1 2.14649,2.146485 2.1461849,2.1461849 0 0 1 -2.14649,2.144531 h -4.5 v 7.853515 a 2.5000019,2.5000019 0 0 1 -2.5,2.501954 2.5000019,2.5000019 0 0 1 -2.5,-2.501954 V 60.984374 H 77.074218 v 7.853515 a 2.5000019,2.5000019 0 0 1 -2.5,2.501954 2.5000019,2.5000019 0 0 1 -2.5,-2.501954 v -7.853515 h -7.564453 a 2.7762211,2.7762211 0 0 1 -0.509766,0.04687 2.7762211,2.7762211 0 0 1 -0.138672,-0.0039 2.7762211,2.7762211 0 0 1 -0.138672,0.0039 2.7762211,2.7762211 0 0 1 -0.509765,-0.04687 h -7.5625 v 7.853515 a 2.5000019,2.5000019 0 0 1 -2.501953,2.501954 2.5000019,2.5000019 0 0 1 -2.5,-2.501954 V 60.984374 H 33.947265 v 7.853515 a 2.5000019,2.5000019 0 0 1 -2.5,2.501954 2.5000019,2.5000019 0 0 1 -2.5,-2.501954 V 60.984374 H 23.15039 a 2.1461849,2.1461849 0 0 1 -2.146485,-2.144531 2.1461849,2.1461849 0 0 1 2.146485,-2.146485 h 16.980468 v -8.169922 a 2.168196,2.168196 0 0 1 2.167969,-2.167968 2.168196,2.168196 0 0 1 2.167969,2.167968 v 8.169922 H 60.947265 V 41.660155 a 2.7762211,2.7762211 0 0 1 2.77539,-2.777344 z" /></svg>
