<?xml version="1.0" encoding="UTF-8" standalone="no"?>
<svg
   viewBox="0 0 128 128"
   version="1.1"
   id="svg5"
   sodipodi:docname="screenshot.svg"
   xml:space="preserve"
   width="128"
   height="128"
   inkscape:version="1.4.3 (0d15f75042, 2025-12-25)"
   xmlns:inkscape="http://www.inkscape.org/namespaces/inkscape"
   xmlns:sodipodi="http://sodipodi.sourceforge.net/DTD/sodipodi-0.dtd"
   xmlns="http://www.w3.org/2000/svg"
   xmlns:svg="http://www.w3.org/2000/svg"><defs
     id="defs5" /><sodipodi:namedview
     id="namedview5"
     pagecolor="#000000"
     bordercolor="#000000"
     borderopacity="0.25"
     inkscape:showpageshadow="2"
     inkscape:pageopacity="0.0"
     inkscape:pagecheckerboard="0"
     inkscape:deskcolor="#ebebeb"
     inkscape:zoom="2.7881944"
     inkscape:cx="65.454546"
     inkscape:cy="65.095891"
     inkscape:window-width="1920"
     inkscape:window-height="1011"
     inkscape:window-x="0"
     inkscape:window-y="0"
     inkscape:window-maximized="1"
     inkscape:current-layer="svg5"
     showguides="true" /><path
     id="rect1"
     style="fill:#ffff00;stroke:none;stroke-width:4.64304"
     d="m 12.329219,18.105367 c -2.6022702,0 -4.6959233,2.047107 -4.6959233,4.589671 v 82.612002 c 0,2.54256 2.0936531,4.58759 4.6959233,4.58759 H 115.66869 c 2.60228,0 4.69801,-2.04503 4.69801,-4.58759 V 22.695038 c 0,-2.542564 -2.09572,-4.589671 -4.69801,-4.589671 z m 75.145192,14.112771 a 4.6950715,4.6950715 0 0 1 4.695924,4.693839 4.6950715,4.6950715 0 0 1 -4.695924,4.695924 4.6950715,4.6950715 0 0 1 -4.693839,-4.695924 4.6950715,4.6950715 0 0 1 4.693839,-4.693839 z m -23.47545,2.345877 c 11.64077,1e-6 21.127488,9.488803 21.127488,21.129573 1e-6,11.640771 -9.486718,21.127489 -21.127488,21.127489 -11.64077,0 -21.127489,-9.486719 -21.127489,-21.127489 0,-11.64077 9.486719,-21.129573 21.127489,-21.129573 z m 0,4.695925 c -9.103362,0 -16.431566,7.330286 -16.431566,16.433648 0,9.103363 7.328204,16.431568 16.431566,16.431565 9.103362,0 16.433649,-7.328203 16.433649,-16.431565 0,-9.103361 -7.330287,-16.433649 -16.433649,-16.433648 z M 49.915357,76.077314 76.995044,106.16747 H 10.554185 V 95.454768 L 21.743983,80.773236 35.82967,94.858924 Z" /></svg>
