<?xml version="1.0" encoding="UTF-8" standalone="no"?>
<svg
   viewBox="0 0 128 128"
   version="1.1"
   id="svg5"
   sodipodi:docname="simulate-input.svg"
   xml:space="preserve"
   width="128"
   height="128"
   inkscape:version="1.4.3 (0d15f75042, 2025-12-25)"
   xmlns:inkscape="http://www.inkscape.org/namespaces/inkscape"
   xmlns:sodipodi="http://sodipodi.sourceforge.net/DTD/sodipodi-0.dtd"
   xmlns="http://www.w3.org/2000/svg"
   xmlns:svg="http://www.w3.org/2000/svg"><defs
     id="defs5" /><sodipodi:namedview
     id="namedview5"
     pagecolor="#000000"
     bordercolor="#000000"
     borderopacity="0.25"
     inkscape:showpageshadow="2"
     inkscape:pageopacity="0.0"
     inkscape:pagecheckerboard="0"
     inkscape:deskcolor="#ebebeb"
     inkscape:zoom="3.9431024"
     inkscape:cx="49.326642"
     inkscape:cy="69.868842"
     inkscape:window-width="1920"
     inkscape:window-height="1011"
     inkscape:window-x="0"
     inkscape:window-y="0"
     inkscape:window-maximized="1"
     inkscape:current-layer="svg5"
     showguides="true" /><path
     id="rect3"
     style="fill:#ff0000;stroke-width:1.1;stroke-linecap:round"
     d="M 12.966797 10.380859 C 8.9625886 10.380859 5.7382812 13.605167 5.7382812 17.609375 L 5.7382812 110.39062 C 5.7382812 114.39486 8.9625886 117.61914 12.966797 117.61914 L 115.0332 117.61914 C 119.03741 117.61914 122.26172 114.39484 122.26172 110.39062 L 122.26172 17.609375 C 122.26172 13.605167 119.03741 10.380859 115.0332 10.380859 L 12.966797 10.380859 z M 23.474609 25.96875 L 57.388672 25.96875 C 60.086516 25.96875 62.259766 28.781116 62.259766 32.275391 L 62.259766 52.732422 C 62.259766 56.226697 60.086516 59.039063 57.388672 59.039062 L 23.474609 59.039062 C 20.776766 59.039062 18.605469 56.226697 18.605469 52.732422 L 18.605469 32.275391 C 18.605469 28.781116 20.776766 25.96875 23.474609 25.96875 z M 94.601562 30.566406 L 99.580078 30.566406 L 99.580078 40.269531 L 109.2832 40.269531 L 109.2832 45.25 L 99.580078 45.25 L 99.580078 54.951172 L 94.601562 54.951172 L 94.601562 45.25 L 84.898438 45.25 L 84.898438 40.269531 L 94.601562 40.269531 L 94.601562 30.566406 z M 41.601562 68.960938 L 100.88281 68.960938 C 105.59854 68.960938 109.39453 71.773303 109.39453 75.267578 L 109.39453 95.724609 C 109.39453 99.218884 105.59854 102.03125 100.88281 102.03125 L 41.601562 102.03125 C 36.88583 102.03125 33.089844 99.218884 33.089844 95.724609 L 33.089844 75.267578 C 33.089844 71.773303 36.885831 68.960938 41.601562 68.960938 z " /></svg>
