<?xml version="1.0" encoding="UTF-8" standalone="no"?>
<svg
   viewBox="0 0 128 128"
   version="1.1"
   id="svg5"
   sodipodi:docname="switch-profile.svg"
   xml:space="preserve"
   width="128"
   height="128"
   inkscape:version="1.4.3 (0d15f75042, 2025-12-25)"
   xmlns:inkscape="http://www.inkscape.org/namespaces/inkscape"
   xmlns:sodipodi="http://sodipodi.sourceforge.net/DTD/sodipodi-0.dtd"
   xmlns="http://www.w3.org/2000/svg"
   xmlns:svg="http://www.w3.org/2000/svg"><defs
     id="defs5" /><sodipodi:namedview
     id="namedview5"
     pagecolor="#000000"
     bordercolor="#000000"
     borderopacity="0.25"
     inkscape:showpageshadow="2"
     inkscape:pageopacity="0.0"
     inkscape:pagecheckerboard="0"
     inkscape:deskcolor="#ebebeb"
     inkscape:zoom="2.7881944"
     inkscape:cx="48.597759"
     inkscape:cy="50.749689"
     inkscape:window-width="1920"
     inkscape:window-height="1011"
     inkscape:window-x="0"
     inkscape:window-y="0"
     inkscape:window-maximized="1"
     inkscape:current-layer="svg5"
     showguides="true" /><g
     id="g19"
     transform="translate(-2.533194)"
     style="fill:#008080"><path
       id="path2"
       style="baseline-shift:baseline;display:inline;overflow:visible;vector-effect:none;fill:#008080;stroke-width:1.2811;stroke-linecap:round;stroke-linejoin:round;enable-background:accumulate;stop-color:#000000"
       d="m 61.226562,20.443359 a 2.050485,2.5621963 0 0 0 -2.052734,2.560547 2.050485,2.5621963 0 0 0 2.052734,2.5625 H 95.060547 V 69.125 76.802734 H 71.847656 a 2.5,2.5 0 0 0 -2.5,2.5 2.5,2.5 0 0 0 0.759766,1.791016 2.5621963,2.5621963 0 0 0 0.08008,0.0918 l 25.595703,25.59375 0.02734,0.0273 a 2.5624525,2.5624525 0 0 0 0.08789,0.0781 2.5621963,2.5621963 0 0 0 0.162109,0.13867 2.5624525,2.5624525 0 0 0 0.0293,0.0215 2.5621963,2.5621963 0 0 0 0.24414,0.16406 2.5624525,2.5624525 0 0 0 0.15625,0.0781 2.5621963,2.5621963 0 0 0 0.140625,0.0703 2.5624525,2.5624525 0 0 0 0.144532,0.0508 2.5621963,2.5621963 0 0 0 0.183593,0.0625 2.5621963,2.5621963 0 0 0 0.322266,0.0645 2.5624525,2.5624525 0 0 0 0.0059,0 2.5621963,2.5621963 0 0 0 0.333985,0.0215 2.5621963,2.5621963 0 0 0 0.335937,-0.0215 2.5624525,2.5624525 0 0 0 0.328125,-0.0645 2.5621963,2.5621963 0 0 0 0.181641,-0.0625 2.5621963,2.5621963 0 0 0 0.146484,-0.0508 2.5624525,2.5624525 0 0 0 0.140625,-0.0703 2.5621963,2.5621963 0 0 0 0.15625,-0.0781 2.5621963,2.5621963 0 0 0 0.242188,-0.16406 2.5621963,2.5621963 0 0 0 0.03125,-0.0215 2.5621963,2.5621963 0 0 0 0.162109,-0.13867 2.5624525,2.5624525 0 0 0 0.08789,-0.0781 l 0.02734,-0.0273 25.593756,-25.59375 a 2.5621963,2.5621963 0 0 0 0.0898,-0.101563 2.5,2.5 0 0 0 0.74805,-1.78125 2.5,2.5 0 0 0 -2.5,-2.5 H 100.18359 V 58.875 23.003906 a 2.050485,2.5621963 0 0 0 -2.048824,-2.560547 h -0.513672 z" /><path
       id="path2-7"
       style="baseline-shift:baseline;display:inline;overflow:visible;vector-effect:none;fill:#008080;stroke-width:1.2811;stroke-linecap:round;stroke-linejoin:round;enable-background:accumulate;stop-color:#000000"
       d="m 71.83985,107.55663 a 2.050485,2.5621963 0 0 0 2.05273,-2.56054 2.050485,2.5621963 0 0 0 -2.05273,-2.5625 H 38.005861 V 58.874992 51.197258 H 61.21875 a 2.5,2.5 0 0 0 2.5,-2.5 2.5,2.5 0 0 0 -0.75976,-1.791016 2.5621963,2.5621963 0 0 0 -0.0801,-0.0918 l -25.595707,-25.59375 -0.02734,-0.0273 a 2.5624525,2.5624525 0 0 0 -0.08789,-0.0781 2.5621963,2.5621963 0 0 0 -0.162109,-0.13867 2.5624525,2.5624525 0 0 0 -0.0293,-0.0215 2.5621963,2.5621963 0 0 0 -0.24414,-0.16406 2.5624525,2.5624525 0 0 0 -0.15625,-0.0781 2.5621963,2.5621963 0 0 0 -0.140625,-0.0703 2.5624525,2.5624525 0 0 0 -0.144532,-0.0508 2.5621963,2.5621963 0 0 0 -0.183593,-0.0625 2.5621963,2.5621963 0 0 0 -0.322266,-0.0645 2.5624525,2.5624525 0 0 0 -0.0059,0 2.5621963,2.5621963 0 0 0 -0.333985,-0.0215 2.5621963,2.5621963 0 0 0 -0.335937,0.0215 2.5624525,2.5624525 0 0 0 -0.328125,0.0645 2.5621963,2.5621963 0 0 0 -0.181641,0.0625 2.5621963,2.5621963 0 0 0 -0.146484,0.0508 2.5624525,2.5624525 0 0 0 -0.140625,0.0703 2.5621963,2.5621963 0 0 0 -0.15625,0.0781 2.5621963,2.5621963 0 0 0 -0.242188,0.16406 2.5621963,2.5621963 0 0 0 -0.03125,0.0215 2.5621963,2.5621963 0 0 0 -0.162109,0.13867 2.5624525,2.5624525 0 0 0 -0.08789,0.0781 l -0.02734,0.0273 -25.593756,25.59375 a 2.5621963,2.5621963 0 0 0 -0.0898,0.101563 2.5,2.5 0 0 0 -0.74805,1.78125 2.5,2.5 0 0 0 2.5,2.5 h 23.208986 v 17.927737 35.871098 a 2.050485,2.5621963 0 0 0 2.048828,2.56054 h 0.513672 z" /></g></svg>
